<svg xmlns="http://www.w3.org/2000/svg" viewBox="0 0 305.72 133.93"><defs><style>.cls-1{fill:#fff;}</style></defs><title>shabana-and-abhiraman</title><g id="Layer_2" data-name="Layer 2"><g id="Layer_1-2" data-name="Layer 1"><path class="cls-1" d="M5.5,46.72a11.4,11.4,0,0,1,7.22-1.44,10.72,10.72,0,0,1,5,1.7Q9.6,52.14,11,60.16a10.24,10.24,0,0,0,2.72,4.51c1.27,1.21,3.57,1.93,6.92,2.16a13,13,0,0,0,8.16-2.5q3.66-2.64,4.62-9.14a7.72,7.72,0,0,0-2.12-6Q29.15,47,22.9,44.11l-1.44-.83a19.9,19.9,0,0,1-6.37-5.35,17.35,17.35,0,0,1-2.7-7.87q-8.64-2.36-10.6-6.59t4.58-8.2v.22a13.15,13.15,0,0,0,.52,3.18A6.4,6.4,0,0,0,9.1,21.81,11.88,11.88,0,0,0,14.53,24a21.32,21.32,0,0,1,4.1-4.58q7.76-5.9,15.25-5.28t11.66,5.45Q50,26,44,29.71T22,31.19a4.87,4.87,0,0,0,1.44,2.51A26.9,26.9,0,0,0,27,36.47q11.4,5.28,15,10.28T43.8,59.68a19.12,19.12,0,0,1-7,11.23Q31.15,75.65,20,76q-9.81-.17-15.42-6T.39,55Q1.88,48.69,5.5,46.72ZM34.88,20.29a12.6,12.6,0,0,0-5.78,1.39,12,12,0,0,0-5,4.36Q37.91,27.89,38,22.25C37.68,21,36.64,20.34,34.88,20.29Z" transform="translate(-0.1 -14.03)"/><path class="cls-1" d="M51.65,75.86c-2,0-3.62-1.62-4.75-4.71a11,11,0,0,1-.64-4,20.57,20.57,0,0,1,1.34-5.06L57.89,30.71c.73-2.21,2.86-3.24,6.41-3.09h3.62L60.55,49.69a14,14,0,0,1,4.17-2.53,9.68,9.68,0,0,1,3.6-.31h0q3.54,0,5.59,4.76Q75,56,71.37,65.13a1.65,1.65,0,0,1-.09.22h0l-.26.79c-.26,1.42,0,2.38.89,2.88s1.87.32,3-.53l5.81-4.75a5,5,0,0,1-1,5.19c-2.93,3.58-5.86,5.83-8.76,6.76s-5.39-.58-7.42-4.54a14.34,14.34,0,0,1,.13-9.2l2-5.85c.26-1.66,0-2.78-.74-3.38a2.36,2.36,0,0,0-2.83.11l-.27.18a7.93,7.93,0,0,0-1.68,1.48,14.3,14.3,0,0,0-2,3.53,58.75,58.75,0,0,0-2.44,7.59l-3.15,10.3h-.87Z" transform="translate(-0.1 -14.03)"/><path class="cls-1" d="M80.84,74.73q-5.55-4.37-3.62-11.47Q79,54.88,81.67,50.78c2.06-2.47,4.37-3.8,6.93-4s5.21.93,7.94,3.32l.22-.22a3.79,3.79,0,0,1,.39-1h0q1.88-2.35,5.8-2h2.66l-1.79,5.59h0l-4.58,13.7a2.73,2.73,0,0,0,1,3.07q1.44.95,3.8-.72L109,63.74a5,5,0,0,1-1,5.19q-3.58,5.37-8.53,6.76t-7.18-4.54Q86.34,78.22,80.84,74.73ZM91.2,63.56c1-2.35,2-5,3-8a2.38,2.38,0,0,0-.87-2.36,2.49,2.49,0,0,0-2.6-.13q-1.55.64-2.9,3.45a51.3,51.3,0,0,0-2.4,6.63c-.23.75-.46,1.51-.7,2.27-.52,1.54-.33,2.51.57,2.92a3.37,3.37,0,0,0,3.1-.35C89.24,67.39,90.17,65.92,91.2,63.56Z" transform="translate(-0.1 -14.03)"/><path class="cls-1" d="M137.59,63.78A5,5,0,0,1,136.24,69a22.44,22.44,0,0,1-7.52,5.26,18.48,18.48,0,0,1-8.58,1.68c-.46,0-1,0-1.48,0q-3.57,0-5.06-4a2.12,2.12,0,0,1-.22-.48s0,0,0,0L112,76h-.92c-2-.09-3.62-1.67-4.75-4.75a10.81,10.81,0,0,1-.63-4,20,20,0,0,1,1.33-5.06l10.29-31.41q1.14-3.32,6.46-3.05h3.62l-7.37,22.07a14,14,0,0,1,4.29-2.53,9,9,0,0,1,3.43-.3q3.5,0,5.58,4.71,1.48,4.45-1.83,13.57A30,30,0,0,1,130.31,68Zm-21.68,1.88a2.15,2.15,0,0,0,.83,2.42,2.67,2.67,0,0,0,2.75-.09q1.62-.81,2.7-3.69l1.47-4.1q.68-1.87,1.41-4.05c.29-1.66.05-2.8-.72-3.41a2.3,2.3,0,0,0-2.81.09A6.27,6.27,0,0,0,120,54.25a13.3,13.3,0,0,0-1.7,3.49Q117.35,60.29,115.91,65.66Z" transform="translate(-0.1 -14.03)"/><path class="cls-1" d="M140.21,74.73q-5.53-4.37-3.62-11.47,1.74-8.38,4.45-12.48c2.07-2.47,4.38-3.8,6.94-4s5.2.93,7.94,3.32l.22-.22a3.22,3.22,0,0,1,.39-1h0c1.25-1.57,3.19-2.25,5.8-2H165l-1.79,5.59h-.05l-4.58,13.7a2.73,2.73,0,0,0,1,3.07q1.44.95,3.79-.72l4.93-4.75a5,5,0,0,1-1,5.19q-3.57,5.37-8.53,6.76t-7.17-4.54Q145.7,78.22,140.21,74.73Zm10.36-11.17c1-2.35,2.05-5,3-8a2.41,2.41,0,0,0-.88-2.36,2.47,2.47,0,0,0-2.59-.13c-1,.43-2,1.58-2.9,3.45a51.3,51.3,0,0,0-2.4,6.63c-.24.75-.47,1.51-.7,2.27-.52,1.54-.34,2.51.57,2.92A3.35,3.35,0,0,0,147.8,68Q149,67.1,150.57,63.56Z" transform="translate(-0.1 -14.03)"/><path class="cls-1" d="M169,75.91c-2.09-.09-3.7-1.67-4.84-4.76a11.22,11.22,0,0,1-.63-4,19.63,19.63,0,0,1,1.37-5.06L169,49.86c.76-2.21,2.95-3.22,6.59-3h3.75l-1,2.88a14.87,14.87,0,0,1,4.29-2.55,9,9,0,0,1,3.65-.29c2.41,0,4.32,1.57,5.71,4.72q1.19,4.44-2.57,13.56l-.39,1c-.3,1.42,0,2.38.89,2.88s1.93.32,3.12-.53l6-4.75a4.88,4.88,0,0,1-1,5.19q-4.58,5.37-9.05,6.76c-3,.93-5.52-.58-7.62-4.54a14,14,0,0,1,.22-9.2l2-5.85c.3-1.66.05-2.79-.74-3.4a2.4,2.4,0,0,0-2.88.09l-.3.22a7.65,7.65,0,0,0-1.75,1.48A14.34,14.34,0,0,0,175.72,58a57.84,57.84,0,0,0-2.53,7.59l-3.27,10.3Z" transform="translate(-0.1 -14.03)"/><path class="cls-1" d="M198.71,74.73q-5.53-4.37-3.62-11.47,1.75-8.38,4.45-12.48c2.07-2.47,4.38-3.8,6.94-4s5.21.93,7.94,3.32l.22-.22a3.48,3.48,0,0,1,.39-1h0q1.88-2.35,5.81-2h2.66l-1.79,5.59h0l-4.59,13.7a2.73,2.73,0,0,0,1,3.07q1.44.95,3.8-.72l4.93-4.75a5,5,0,0,1-1,5.19q-3.57,5.37-8.53,6.76t-7.17-4.54Q204.21,78.22,198.71,74.73Zm10.37-11.17c1-2.35,2-5,3-8a2.42,2.42,0,0,0-.87-2.36,2.49,2.49,0,0,0-2.6-.13q-1.54.64-2.9,3.45a51.3,51.3,0,0,0-2.4,6.63c-.23.75-.47,1.51-.7,2.27-.52,1.54-.33,2.51.57,2.92a3.37,3.37,0,0,0,3.1-.35Q207.53,67.1,209.08,63.56Z" transform="translate(-0.1 -14.03)"/><path class="cls-1" d="M285,59.77c.84,2.53.77,4.45-.22,5.78s-2.75,2.36-5.28,3.12q1.22-6.81-5.15-8.2a9.47,9.47,0,0,1-.13,3q-4,11.82-13.65,12.35T247.38,71q-3.42-5.23-.81-11.91T257.52,48.6a7.86,7.86,0,0,1-6.59-7.18q-.83-5.91,3.41-11.49a14.81,14.81,0,0,1,8.87-5,11.5,11.5,0,0,1,8.88,1.84q3.71,2.66,3,8.9a15.35,15.35,0,0,1-2.23,4.4,5.44,5.44,0,0,1-3.27,2.4q.75-5.33-.89-7.92a4.93,4.93,0,0,0-4.17-2.64A5.65,5.65,0,0,0,260,34.25q-2.83,4.66-1.25,7.37a10.38,10.38,0,0,0,4.43,4.1l.44,2.53q-7.86,6.42-8.77,13.59t4.45,8.22a6.07,6.07,0,0,0,5.23-2.51,14,14,0,0,0,2.14-6.3,9.61,9.61,0,0,1-4.49.94A2.14,2.14,0,0,1,260.38,61a3.18,3.18,0,0,1-.24-1.74c.2-1.19,1.1-2.09,2.7-2.69a31.68,31.68,0,0,1,5.28-1.41q1.1-.22,2.1-.48Q281.9,52,285,59.77Z" transform="translate(-0.1 -14.03)"/><path class="cls-1" d="M8.2,137.55q3.89.1,8-4a47.07,47.07,0,0,0,7.15-14.31,6.13,6.13,0,0,0-.74-.22,12,12,0,0,0-1.15-.39q-.6-.18-.81-.27h0q-9.37-3.84-11.34-12.17-.53-4.67,2.27-6.85a10,10,0,0,1,6.43-2.13,7.67,7.67,0,0,1,5.65,2.09q-4.53,3.57-3.31,7.66t6.37,4.9q.74-1.7,2.4-5,1.13-2.27,2.15-4.41a34.87,34.87,0,0,0,1.47-3.36Q37,90.41,44.39,87.81t20.39-1.37L54,118.55q6.5,3.57,8.31,8.55a17.14,17.14,0,0,1,.89,9.44,16.23,16.23,0,0,1-2.53,6.57,13.15,13.15,0,0,1-6.43,4.14,12.9,12.9,0,0,1-8,.11q-3.84-1.2-5.33-5.86a25.82,25.82,0,0,1,.2-9.43A54.09,54.09,0,0,1,43.58,123v-.09L33,120.34q-2,4.09-3.62,7.68a74.11,74.11,0,0,1-7.48,13.72,14.92,14.92,0,0,1-10.36,6.17A12.66,12.66,0,0,1,5,146.38a7.8,7.8,0,0,1-4.08-4.91Q0,138.23,3.27,133.6A4.84,4.84,0,0,0,8.2,137.55ZM54.27,90.67q-6.33-.09-9.34,3.84a41.4,41.4,0,0,0-5.49,10.6q-1.62,4.11-3.93,8.86l10.25,2.35ZM54.75,130c-.79-2.42-1.67-4-2.66-4.73a53.85,53.85,0,0,0-1.81,5.61,60.72,60.72,0,0,0-1.49,6.76c-.33,2.14-.31,3.57.07,4.3a2,2,0,0,0,2,1,4,4,0,0,0,2.23-1,3.94,3.94,0,0,0,1.31-2.1C55.4,135.75,55.54,132.47,54.75,130Z" transform="translate(-0.1 -14.03)"/><path class="cls-1" d="M97.55,135.78A5.05,5.05,0,0,1,96.19,141a22.44,22.44,0,0,1-7.52,5.26,18.44,18.44,0,0,1-8.57,1.68c-.47,0-1,0-1.49,0q-3.57,0-5.06-4a2.12,2.12,0,0,1-.22-.48s0,0,0,0L72,148h-.91c-2-.08-3.63-1.67-4.76-4.75a11,11,0,0,1-.63-4A20,20,0,0,1,67,134.12L77.3,102.71q1.14-3.31,6.46-3h3.62L80,121.73a14,14,0,0,1,4.3-2.53,9,9,0,0,1,3.42-.3q3.49,0,5.58,4.71,1.48,4.45-1.83,13.57A30,30,0,0,1,90.26,140Zm-21.69,1.88a2.16,2.16,0,0,0,.83,2.42,2.67,2.67,0,0,0,2.75-.09q1.62-.81,2.71-3.69c.52-1.48,1-2.85,1.46-4.1s.92-2.6,1.42-4c.29-1.66,0-2.8-.72-3.41a2.31,2.31,0,0,0-2.82.09,6.27,6.27,0,0,0-1.55,1.42,13.3,13.3,0,0,0-1.7,3.49C77.62,131.44,76.82,134.08,75.86,137.66Z" transform="translate(-0.1 -14.03)"/><path class="cls-1" d="M101.43,147.87c-2-.06-3.62-1.63-4.76-4.72a11.22,11.22,0,0,1-.63-4,20.45,20.45,0,0,1,1.33-5.06l10.3-31.37q1.08-3.31,6.41-3.09h3.62l-7.37,22.07a13.73,13.73,0,0,1,4.17-2.53,9.65,9.65,0,0,1,3.59-.31h0q3.54,0,5.58,4.76,1.14,4.41-2.48,13.52a1.65,1.65,0,0,1-.09.22h0l-.26.79c-.27,1.42,0,2.38.89,2.88s1.87.32,3-.53l5.8-4.75a5,5,0,0,1-1,5.19q-4.41,5.37-8.77,6.76t-7.41-4.54a14.34,14.34,0,0,1,.13-9.2l2-5.85c.26-1.66,0-2.78-.74-3.38a2.37,2.37,0,0,0-2.84.11l-.26.18a7.93,7.93,0,0,0-1.68,1.48,13.67,13.67,0,0,0-2,3.53,58.47,58.47,0,0,0-2.45,7.59l-3.14,10.3h-.87Z" transform="translate(-0.1 -14.03)"/><path class="cls-1" d="M126.71,139.31a24,24,0,0,1,1.07-4.53,6.28,6.28,0,0,0,.22-.7l4.05-12.17c.62-2.21,2.71-3.24,6.29-3.1h3.88l-6.46,19.33c-.29,1.42,0,2.37.85,2.85s1.89.32,3.08-.5l5.84-4.75a4.92,4.92,0,0,1-1.09,5.19q-4.49,5.37-9.22,6.76t-7.83-4.54A8.77,8.77,0,0,1,126.71,139.31Zm11.15-34.53a6.6,6.6,0,0,1,3.79-2.11,3.74,3.74,0,0,1,3.4,1.16,4.61,4.61,0,0,1,1,3.77,7.5,7.5,0,0,1-2,4.16,6.62,6.62,0,0,1-3.84,2.12,3.72,3.72,0,0,1-3.4-1.18,4.62,4.62,0,0,1-1-3.75A7.77,7.77,0,0,1,137.86,104.78Z" transform="translate(-0.1 -14.03)"/><path class="cls-1" d="M152.58,139.14a26,26,0,0,1,1.2-5l3.14-8.81a12.43,12.43,0,0,1-3.66,1.75,34.16,34.16,0,0,1-11.43,16.4,5.55,5.55,0,0,1-1.25-2.07,2.09,2.09,0,0,1,.81-2.16,34.61,34.61,0,0,0,8-12.48c-1.28-.64-2.32-2-3.1-4.19q-1.4-4.4,7.81-3.71v.05h.22a8.84,8.84,0,0,0,0,.91,1.63,1.63,0,0,0,1.44.85,3.47,3.47,0,0,0,2.22-.8l1.36-1h8.72l-6.45,19.29c-.3,1.42,0,2.38.85,2.88s1.86.32,3-.53l5.84-4.75a4.86,4.86,0,0,1-1,5.19q-4.5,5.37-9.23,6.76t-7.83-4.54A9.3,9.3,0,0,1,152.58,139.14Z" transform="translate(-0.1 -14.03)"/><path class="cls-1" d="M171.84,146.73q-5.53-4.36-3.62-11.47c1.16-5.59,2.65-9.74,4.45-12.48,2.06-2.47,4.38-3.8,6.94-4s5.2.93,7.94,3.32l.21-.22a3.5,3.5,0,0,1,.4-1h0q1.88-2.36,5.8-2.05h2.66l-1.78,5.59h0l-4.58,13.7a2.73,2.73,0,0,0,1.05,3.07q1.44.94,3.79-.72l4.93-4.75a5,5,0,0,1-1,5.19q-3.59,5.37-8.53,6.76t-7.18-4.54Q177.34,150.23,171.84,146.73Zm10.36-11.17c1-2.35,2-5,3-8a2.38,2.38,0,0,0-.87-2.36,2.47,2.47,0,0,0-2.59-.13c-1,.44-2,1.59-2.91,3.45a55.07,55.07,0,0,0-2.4,6.63l-.69,2.27c-.53,1.54-.34,2.51.56,2.92a3.36,3.36,0,0,0,3.1-.35Q180.66,139.1,182.2,135.56Z" transform="translate(-0.1 -14.03)"/><path class="cls-1" d="M200.42,147.91c-2.1-.09-3.68-1.66-4.76-4.71a10.56,10.56,0,0,1-.59-4,20.09,20.09,0,0,1,1.46-5l4.15-12.26c.78-2.21,3-3.22,6.58-3H211l-1,2.88a15,15,0,0,1,4.28-2.55,8.87,8.87,0,0,1,3.62-.29q3,0,5,3.45a10.55,10.55,0,0,1,5.91-3.21,20.4,20.4,0,0,1,5.35-.24c2.38,0,4.24,1.58,5.58,4.72q1.44,4.44-2.09,13.61l-.39,1c-.32,1.42-.05,2.38.82,2.88s1.92.32,3.15-.53l6-4.75a5,5,0,0,1-1.13,5.19q-4.67,5.32-9.4,6.72t-7.14-3.41a13.48,13.48,0,0,1-.59-5.34,22.92,22.92,0,0,1,.94-5l1.4-5.85c.29-1.66.05-2.78-.72-3.38a2.44,2.44,0,0,0-2.86.07l-.3.22a7.44,7.44,0,0,0-1.75,1.48,14.4,14.4,0,0,0-2.07,3.55,58.78,58.78,0,0,0-2.6,7.62l-3.36,10.25h-.91c-2.1-.09-3.68-1.66-4.76-4.71a10.56,10.56,0,0,1-.59-4,20.53,20.53,0,0,1,1.46-5l2.27-6.8c.09-1.37-.24-2.29-1-2.75a2.47,2.47,0,0,0-2.68.22,1.44,1.44,0,0,1-.31.22,7.62,7.62,0,0,0-1.74,1.48,14.4,14.4,0,0,0-2.07,3.55,58.78,58.78,0,0,0-2.6,7.62l-3.36,10.25Z" transform="translate(-0.1 -14.03)"/><path class="cls-1" d="M246.7,146.73q-5.53-4.36-3.62-11.47c1.16-5.59,2.65-9.74,4.45-12.48,2.07-2.47,4.38-3.8,6.94-4s5.2.93,7.94,3.32l.22-.22a3.22,3.22,0,0,1,.39-1h0c1.25-1.57,3.19-2.25,5.8-2.05h2.66l-1.78,5.59h-.05l-4.58,13.7a2.73,2.73,0,0,0,1.05,3.07q1.44.94,3.79-.72l4.93-4.75a5,5,0,0,1-1,5.19q-3.57,5.37-8.53,6.76t-7.18-4.54Q252.2,150.23,246.7,146.73Zm10.36-11.17c1-2.35,2.05-5,3-8a2.38,2.38,0,0,0-.87-2.36,2.47,2.47,0,0,0-2.59-.13c-1,.44-2,1.59-2.9,3.45a51.84,51.84,0,0,0-2.4,6.63c-.24.75-.47,1.51-.7,2.27-.53,1.54-.34,2.51.57,2.92a3.35,3.35,0,0,0,3.09-.35Q255.52,139.1,257.06,135.56Z" transform="translate(-0.1 -14.03)"/><path class="cls-1" d="M275.5,147.91c-2.1-.09-3.71-1.67-4.85-4.76a11.22,11.22,0,0,1-.63-4,19.63,19.63,0,0,1,1.37-5.06l4.06-12.22c.76-2.21,2.95-3.22,6.59-3h3.75l-1,2.88a14.87,14.87,0,0,1,4.29-2.55,9,9,0,0,1,3.65-.29c2.41,0,4.32,1.58,5.71,4.72q1.19,4.44-2.57,13.56l-.39,1c-.3,1.42,0,2.38.89,2.88s1.93.32,3.12-.53l6-4.75a4.88,4.88,0,0,1-1.05,5.19q-4.57,5.37-9.05,6.76c-3,.93-5.52-.58-7.62-4.54A14,14,0,0,1,288,134l2-5.85c.3-1.66.05-2.79-.74-3.4a2.4,2.4,0,0,0-2.88.09l-.3.22a7.65,7.65,0,0,0-1.75,1.48,14.34,14.34,0,0,0-2.05,3.53,57.84,57.84,0,0,0-2.53,7.59l-3.27,10.3Z" transform="translate(-0.1 -14.03)"/></g></g></svg>