<svg xmlns="http://www.w3.org/2000/svg" width="222.568" height="75.582" viewBox="0 0 222.568 75.582"><path d="M203.132,67.3H16.66a.916.916,0,0,1-.866-.96c-.006-6.046-4.428-10.944-9.879-10.944a.929.929,0,0,1-.866-.96V18.186a.916.916,0,0,1,.866-.96c5.454-.007,9.873-4.908,9.879-10.956a.916.916,0,0,1,.866-.96H203.132a.916.916,0,0,1,.866.96c.006,6.053,4.433,10.956,9.891,10.956a.916.916,0,0,1,.866.96V54.435a.929.929,0,0,1-.866.96,9.412,9.412,0,0,0-6.993,3.2,11.59,11.59,0,0,0-2.9,7.752A.915.915,0,0,1,203.132,67.3Z" transform="translate(1.414 1.487)" fill="#fff"/><path d="M221.7,75.582H.871A.919.919,0,0,1,0,74.622V.96A.931.931,0,0,1,.871,0H221.7a.931.931,0,0,1,.871.96V74.622a.919.919,0,0,1-.871.96ZM1.741,73.662H220.873V1.92H1.741Z" fill="#fff"/><path d="M185.722,12.195a4.262,4.262,0,1,1,4.262-4.262,4.262,4.262,0,0,1-4.262,4.262Zm0-6.6a2.342,2.342,0,1,0,2.342,2.342A2.342,2.342,0,0,0,185.722,5.59Z" transform="translate(27.937 1.027)" fill="#fff"/><path d="M185.722,57.185a4.262,4.262,0,1,1,4.262-4.249A4.262,4.262,0,0,1,185.722,57.185Zm0-6.6a2.342,2.342,0,1,0,1.661.691A2.342,2.342,0,0,0,185.722,50.58Z" transform="translate(27.937 13.623)" fill="#fff"/><path d="M7.732,12.195a4.262,4.262,0,1,1,4.262-4.262A4.262,4.262,0,0,1,7.732,12.195Zm0-6.6a2.342,2.342,0,1,0,2.342,2.342A2.342,2.342,0,0,0,7.732,5.59Z" transform="translate(0.971 1.027)" fill="#fff"/><path d="M7.732,57.185a4.262,4.262,0,1,1,4.262-4.249A4.262,4.262,0,0,1,7.732,57.185Zm0-6.6a2.342,2.342,0,1,0,1.661.691,2.342,2.342,0,0,0-1.661-.691Z" transform="translate(0.971 13.623)" fill="#fff"/></svg>