<svg xmlns="http://www.w3.org/2000/svg" width="34.433" height="23.347" viewBox="0 0 34.433 23.347"><g transform="translate(-286.687 -3252.984)"><path d="M1.63-84.016a6.226,6.226,0,0,1,4.543,1.947A6.1,6.1,0,0,1,8.12-77.644a7.612,7.612,0,0,1-1.292,4.765,6.044,6.044,0,0,1-4.989,2.234c-.263,1.12-.2,2.27,1.114,4.236s3.667,2.791,4.137,3.628c1.06,1.787-.669,2.415-1.979,1.979-2.625-.907-6.55-1.933-8.91-5.67s-2.513-5.628-2.513-9.4a9.971,9.971,0,0,1,2.6-6.114A7.824,7.824,0,0,1,1.63-84.016Z" transform="translate(293 3337)" fill="#43556b"/><path d="M1.63-84.016a6.226,6.226,0,0,1,4.543,1.947A6.1,6.1,0,0,1,8.12-77.644a7.612,7.612,0,0,1-1.292,4.765,6.044,6.044,0,0,1-4.989,2.234c-.263,1.12-.2,2.27,1.114,4.236s3.667,2.791,4.137,3.628c1.06,1.787-.669,2.415-1.979,1.979-2.625-.907-6.55-1.933-8.91-5.67s-2.513-5.628-2.513-9.4a9.971,9.971,0,0,1,2.6-6.114A7.824,7.824,0,0,1,1.63-84.016Z" transform="translate(313 3337)" fill="#43556b"/></g></svg>