<svg xmlns="http://www.w3.org/2000/svg" viewBox="0 0 90.74 25.53"><defs><style>.cls-1{fill:#fff;}</style></defs><title>Asset 2</title><g id="Layer_2" data-name="Layer 2"><g id="Objects"><path class="cls-1" d="M5.62,7.28a.47.47,0,0,0-.17,0,.45.45,0,0,0-.28.44,5.21,5.21,0,0,0,1.46,3.08,12.58,12.58,0,0,0-2,2.46.46.46,0,0,0,0,.48A.44.44,0,0,0,5,14a12.83,12.83,0,0,0,3.12-.76,5.27,5.27,0,0,0,2.13,2.65.46.46,0,0,0,.52-.07.44.44,0,0,0,.1-.51,5.61,5.61,0,0,1-.09-2.92,5.7,5.7,0,0,1,1.5-2.91.45.45,0,0,0,.09-.58.46.46,0,0,0-.57-.17,5.76,5.76,0,0,1-3.27.09A5.57,5.57,0,0,1,6,7.44.46.46,0,0,0,5.62,7.28Zm.32,5.64a11.19,11.19,0,0,1,1.63-1.73.46.46,0,0,0,.16-.34.45.45,0,0,0-.15-.34A5.23,5.23,0,0,1,6.4,8.9a7.32,7.32,0,0,0,1.94.77,8.17,8.17,0,0,0,2.47.19,8.49,8.49,0,0,0-.9,2.31,7.34,7.34,0,0,0-.15,2.09,5.47,5.47,0,0,1-.94-1.77.42.42,0,0,0-.24-.28.44.44,0,0,0-.37,0A11.32,11.32,0,0,1,5.94,12.92Z"/><path class="cls-1" d="M31,.29a4.68,4.68,0,0,0-.91.09A6.43,6.43,0,0,0,25.4,4.3a8.41,8.41,0,0,0,2.36,9.14,10.82,10.82,0,0,0,9,2.3,10,10,0,0,0,7.67-5.59,7.54,7.54,0,0,0,0-5.55,5.65,5.65,0,0,0-3-3.26,3.43,3.43,0,0,0-2.71-.1,2.38,2.38,0,0,0-1.44,2.51A1.88,1.88,0,0,0,38.37,5.1a1.48,1.48,0,0,0,1.46,0A.48.48,0,0,0,40,4.41a.43.43,0,0,0-.61-.16.68.68,0,0,1-.63,0,1,1,0,0,1-.55-.67,1.47,1.47,0,0,1,.9-1.48,2.71,2.71,0,0,1,2,.1A4.76,4.76,0,0,1,43.64,5a6.55,6.55,0,0,1,0,4.83,9.08,9.08,0,0,1-7,5,10,10,0,0,1-8.29-2.08,7.48,7.48,0,0,1-2.11-8.08,5.54,5.54,0,0,1,4-3.37,4.61,4.61,0,0,1,4.61,2,4.38,4.38,0,0,1-.3,5,3.53,3.53,0,0,1-4.65.52,2.49,2.49,0,0,1-1-2.19,1.53,1.53,0,0,1,1.5-1.37.45.45,0,0,0,.51-.4.46.46,0,0,0-.4-.52A2.39,2.39,0,0,0,28,6.49a3.47,3.47,0,0,0,1.36,3,4.39,4.39,0,0,0,5.86-.63,5.3,5.3,0,0,0,.39-6.15A5.53,5.53,0,0,0,31,.29Z"/><path class="cls-1" d="M2.3.21A2.39,2.39,0,0,0,.81.53,1.79,1.79,0,0,0,0,2a.45.45,0,0,0,.42.48A.45.45,0,0,0,.9,2.06a.94.94,0,0,1,.39-.77A2,2,0,0,1,3,1.28,14.62,14.62,0,0,1,6.59,3.76a12.52,12.52,0,0,0,3,2.11c1.89.66,3.72.13,5.49-.38s3.28-1,4.95-.47c2.5.72,3.65,2.58,4.87,4.55,1.46,2.37,3,5.22,7.25,6a.45.45,0,0,0,.53-.35.46.46,0,0,0-.36-.53C28.49,14,27.13,11.42,25.7,9.1c-1.26-2-2.56-4.13-5.39-4.94a9.51,9.51,0,0,0-5.45.47c-1.71.49-3.32,1-4.94.39A12.07,12.07,0,0,1,7.17,3.07,14.72,14.72,0,0,0,3.31.44,3.86,3.86,0,0,0,2.3.21Z"/><path class="cls-1" d="M19,3.83a4.83,4.83,0,0,0-3.71,1.65,4.82,4.82,0,0,0-.42,4.18,3.54,3.54,0,0,0,3,2.17,3.26,3.26,0,0,0,2.88-1.61,2.56,2.56,0,0,0,0-2.74,2.14,2.14,0,0,0-3-.63,1.87,1.87,0,0,0-.69,1.64,1,1,0,0,0,.69.85.44.44,0,0,0,.57-.28.45.45,0,0,0-.28-.57s-.08,0-.09-.13a1,1,0,0,1,.31-.77,1.22,1.22,0,0,1,.92-.17A1.21,1.21,0,0,1,20,8a1.66,1.66,0,0,1,0,1.8,2.32,2.32,0,0,1-2.06,1.17,2.65,2.65,0,0,1-2.25-1.61A4,4,0,0,1,16,6a4,4,0,0,1,3.16-1.28.44.44,0,0,0,.47-.42.46.46,0,0,0-.43-.48Z"/><path class="cls-1" d="M10.66,0A2.74,2.74,0,0,0,8.21,1.24a3,3,0,0,0-.18,3,3.41,3.41,0,0,0,2.78,1.87.45.45,0,0,0,.07-.9A2.53,2.53,0,0,1,8.83,3.87,2.09,2.09,0,0,1,9,1.73a1.8,1.8,0,0,1,1.78-.8.92.92,0,0,1,.59.32.4.4,0,0,1,.05.43.45.45,0,0,0,.73.52,1.3,1.3,0,0,0,0-1.49A1.86,1.86,0,0,0,10.92,0,2.06,2.06,0,0,0,10.66,0Z"/><path class="cls-1" d="M84.78,7.44A5.57,5.57,0,0,1,82.2,8.8a5.8,5.8,0,0,1-3.28-.09.45.45,0,0,0-.47.75A5.78,5.78,0,0,1,80,12.37a5.51,5.51,0,0,1-.1,2.92.44.44,0,0,0,.11.51.45.45,0,0,0,.52.07,5.27,5.27,0,0,0,2.13-2.65,12.72,12.72,0,0,0,3.12.76.44.44,0,0,0,.43-.21.46.46,0,0,0,0-.48,12.58,12.58,0,0,0-2-2.46,5.33,5.33,0,0,0,1.46-3.08.45.45,0,0,0-.28-.44.51.51,0,0,0-.17,0A.46.46,0,0,0,84.78,7.44Zm-2.26,4.77a.41.41,0,0,0-.36,0,.46.46,0,0,0-.25.28A5.26,5.26,0,0,1,81,14.26a7.72,7.72,0,0,0-.15-2.09,8.61,8.61,0,0,0-.91-2.31,8.21,8.21,0,0,0,2.48-.19,7.32,7.32,0,0,0,1.94-.77,5.26,5.26,0,0,1-1.19,1.61.48.48,0,0,0-.14.34.49.49,0,0,0,.15.34,10.79,10.79,0,0,1,1.64,1.73A11.41,11.41,0,0,1,82.52,12.21Z"/><path class="cls-1" d="M59.77.29a4.78,4.78,0,0,1,.92.09A6.45,6.45,0,0,1,65.34,4.3,8.41,8.41,0,0,1,63,13.44a10.82,10.82,0,0,1-9,2.3,10,10,0,0,1-7.67-5.59,7.49,7.49,0,0,1,0-5.55,5.7,5.7,0,0,1,3-3.26A3.43,3.43,0,0,1,52,1.24a2.38,2.38,0,0,1,1.44,2.51A1.88,1.88,0,0,1,52.37,5.1a1.48,1.48,0,0,1-1.46,0,.49.49,0,0,1-.16-.64.45.45,0,0,1,.62-.16.68.68,0,0,0,.63,0,.93.93,0,0,0,.54-.67,1.44,1.44,0,0,0-.9-1.48,2.69,2.69,0,0,0-2,.1A4.76,4.76,0,0,0,47.1,5a6.55,6.55,0,0,0,0,4.83,9.12,9.12,0,0,0,7,5,9.94,9.94,0,0,0,8.28-2.08,7.46,7.46,0,0,0,2.12-8.08,5.54,5.54,0,0,0-4-3.37,4.6,4.6,0,0,0-4.6,2,4.36,4.36,0,0,0,.3,5,3.53,3.53,0,0,0,4.65.52,2.54,2.54,0,0,0,1-2.19,1.53,1.53,0,0,0-1.51-1.37.45.45,0,0,1-.5-.4.46.46,0,0,1,.39-.52,2.39,2.39,0,0,1,2.51,2.17,3.47,3.47,0,0,1-1.36,3,4.39,4.39,0,0,1-5.86-.63,5.3,5.3,0,0,1-.4-6.15A5.56,5.56,0,0,1,59.77.29Z"/><path class="cls-1" d="M88.44.21a2.41,2.41,0,0,1,1.49.32A1.84,1.84,0,0,1,90.74,2a.45.45,0,0,1-.9.07.92.92,0,0,0-.4-.77,2,2,0,0,0-1.71,0,14.8,14.8,0,0,0-3.59,2.48,12.3,12.3,0,0,1-3,2.11c-1.89.66-3.72.13-5.49-.38s-3.28-1-4.95-.47c-2.5.72-3.65,2.58-4.87,4.55-1.46,2.37-3,5.22-7.25,6a.45.45,0,0,1-.53-.35.45.45,0,0,1,.36-.53C62.25,14,63.61,11.42,65,9.1c1.26-2,2.56-4.13,5.39-4.94a9.51,9.51,0,0,1,5.45.47c1.71.49,3.32,1,4.94.39a12.07,12.07,0,0,0,2.75-1.95A14.72,14.72,0,0,1,87.43.44,3.77,3.77,0,0,1,88.44.21Z"/><path class="cls-1" d="M71.76,3.83a4.83,4.83,0,0,1,3.71,1.65,4.82,4.82,0,0,1,.42,4.18,3.54,3.54,0,0,1-3,2.17A3.25,3.25,0,0,1,70,10.22a2.56,2.56,0,0,1,0-2.74,2.07,2.07,0,0,1,1.37-.94A2.11,2.11,0,0,1,73,6.85a1.9,1.9,0,0,1,.69,1.64,1,1,0,0,1-.69.85.45.45,0,0,1-.29-.85s.07,0,.09-.13a1,1,0,0,0-.31-.77A1.26,1.26,0,0,0,70.75,8a1.68,1.68,0,0,0,0,1.8,2.35,2.35,0,0,0,2.07,1.17,2.65,2.65,0,0,0,2.25-1.61A4,4,0,0,0,74.74,6a4,4,0,0,0-3.16-1.28.44.44,0,0,1-.47-.42.46.46,0,0,1,.43-.48Z"/><path class="cls-1" d="M80.08,0a2.74,2.74,0,0,1,2.45,1.23,3,3,0,0,1,.18,3,3.41,3.41,0,0,1-2.78,1.87.45.45,0,1,1-.07-.9,2.5,2.5,0,0,0,2-1.37,2.09,2.09,0,0,0-.13-2.14A1.81,1.81,0,0,0,80,.93a.94.94,0,0,0-.59.32.42.42,0,0,0,0,.43.45.45,0,0,1-.74.52A1.31,1.31,0,0,1,78.67.71,1.86,1.86,0,0,1,79.81,0,2.48,2.48,0,0,1,80.08,0Z"/><path class="cls-1" d="M45.28,12.34h0a.44.44,0,0,0-.35.18,13.83,13.83,0,0,1-8.76,5,.45.45,0,0,0-.36.39.43.43,0,0,0,.25.46,8.52,8.52,0,0,0,5.78.5,8.22,8.22,0,0,1-2.45,1.95l-.28.17a.47.47,0,0,0-.2.53.46.46,0,0,0,.48.3c.42,0,.86,0,1.28,0a6.15,6.15,0,0,0,2.58-.39,8.56,8.56,0,0,0,1.67,4,.46.46,0,0,0,.73,0,8.56,8.56,0,0,0,1.67-4,6.15,6.15,0,0,0,2.58.39c.42,0,.86,0,1.28,0a.46.46,0,0,0,.48-.3.47.47,0,0,0-.2-.53l-.28-.17a8.22,8.22,0,0,1-2.45-1.95,8.52,8.52,0,0,0,5.78-.5.43.43,0,0,0,.25-.46.45.45,0,0,0-.36-.39,13.83,13.83,0,0,1-8.76-5A.44.44,0,0,0,45.28,12.34Zm-7.4,5.73a14.35,14.35,0,0,0,7.4-4.55,14.42,14.42,0,0,0,7.41,4.55A7.53,7.53,0,0,1,48,17.66a.43.43,0,0,0-.49.08.45.45,0,0,0-.12.48,5.54,5.54,0,0,0,2.23,2.67,3.53,3.53,0,0,1-2.39-.63.44.44,0,0,0-.47-.06.45.45,0,0,0-.26.41,6.89,6.89,0,0,1-1.19,3.67,7,7,0,0,1-1.18-3.67.45.45,0,0,0-.26-.41.44.44,0,0,0-.47.06,3.53,3.53,0,0,1-2.39.63,5.54,5.54,0,0,0,2.23-2.67.45.45,0,0,0-.12-.48.43.43,0,0,0-.49-.08A7.53,7.53,0,0,1,37.88,18.07Z"/></g></g></svg>