<svg xmlns="http://www.w3.org/2000/svg" width="36.693" height="25.691" viewBox="0 0 36.693 25.691"><path d="M35.937-2.062A4.6,4.6,0,0,0,32.7-5.3c-2.871-.786-14.357-.786-14.357-.786s-11.485,0-14.356.756A4.69,4.69,0,0,0,.756-2.062C0,.809,0,6.763,0,6.763s0,5.984.756,8.825A4.6,4.6,0,0,0,3.99,18.823c2.9.786,14.357.786,14.357.786s11.485,0,14.356-.756a4.6,4.6,0,0,0,3.234-3.234c.755-2.871.755-8.825.755-8.825s.03-5.985-.756-8.856ZM14.69,12.264v-11l9.551,5.5Zm0,0" transform="translate(-0.001 6.082)" fill="#dc9340"/></svg>